<?xml version="1.0" encoding="UTF-8"?>
<svg version="1.1" xmlns="http://www.w3.org/2000/svg" width="526" height="475">
<path d="M0 0 C0.76521973 -0.00295074 1.53043945 -0.00590149 2.31884766 -0.00894165 C14.30017748 -0.01947531 25.32445736 0.9291329 36.875 4.3125 C38.27492188 4.67021484 38.27492188 4.67021484 39.703125 5.03515625 C54.47132978 9.01304367 68.28908154 15.79560314 80.65625 24.71875 C82.46068635 26.01489442 84.31750257 27.23787901 86.1875 28.4375 C89.10399312 30.47226264 91.39587319 32.76980584 93.875 35.3125 C95.0815625 36.240625 95.0815625 36.240625 96.3125 37.1875 C99.56021971 39.88073098 102.41294687 42.87747055 104.875 46.3125 C104.875 46.9725 104.875 47.6325 104.875 48.3125 C105.514375 48.56 106.15375 48.8075 106.8125 49.0625 C108.875 50.3125 108.875 50.3125 109.625 52.4375 C109.7075 53.05625 109.79 53.675 109.875 54.3125 C110.535 54.3125 111.195 54.3125 111.875 54.3125 C112.535 55.9625 113.195 57.6125 113.875 59.3125 C114.535 59.3125 115.195 59.3125 115.875 59.3125 C116.535 61.2925 117.195 63.2725 117.875 65.3125 C118.535 65.3125 119.195 65.3125 119.875 65.3125 C120.8070314 67.17656279 121.73856557 69.04087542 122.66796875 70.90625 C123.47476121 72.51461296 124.28993051 74.1188003 125.11328125 75.71875 C130.33742575 85.94060549 133.97401964 96.20231457 136.875 107.3125 C137.14611603 108.34768265 137.41723206 109.3828653 137.69656372 110.44941711 C140.45874366 122.46791176 140.4378309 134.44620747 140.5546875 146.73046875 C140.58732035 149.15074126 140.62069484 151.57100387 140.65475464 153.99125671 C141.00927766 181.14445601 141.0273751 208.30073155 141.00357127 235.45579898 C140.99978636 240.2619623 141.00117871 245.068105 141.00537109 249.87426758 C141.02083633 268.35406244 140.9844813 286.83294073 140.875 305.3125 C140.86850937 306.53317924 140.86201874 307.75385849 140.85533142 309.01152802 C140.81613999 315.99584634 140.75427464 322.9792917 140.65792465 329.96306419 C140.63135325 332.05350982 140.61081675 334.14404346 140.59717178 336.23461342 C140.46960692 354.03445368 137.95110414 369.89825844 130.875 386.3125 C130.215 386.3125 129.555 386.3125 128.875 386.3125 C128.7925 386.828125 128.71 387.34375 128.625 387.875 C126.69012751 394.16333561 122.73276098 398.97494106 118.3125 403.6875 C117.83103516 404.21988281 117.34957031 404.75226563 116.85351562 405.30078125 C114.55848343 407.78206778 113.13221419 409.22676194 109.875 410.3125 C109.545 411.3025 109.215 412.2925 108.875 413.3125 C100.75824942 418.55775863 92.46183915 420.88665125 82.875 419.3125 C80.10856119 418.246031 78.27578547 417.09913105 75.875 415.3125 C75.875 414.6525 75.875 413.9925 75.875 413.3125 C75.215 413.3125 74.555 413.3125 73.875 413.3125 C70.90349598 408.38147924 68.64238727 403.53267517 66.6875 398.125 C66.42775391 397.42697266 66.16800781 396.72894531 65.90039062 396.00976562 C64.71995577 392.80398518 63.66360018 389.634873 62.875 386.3125 C62.215 386.3125 61.555 386.3125 60.875 386.3125 C60.875 385.6525 60.875 384.9925 60.875 384.3125 C60.215 384.3125 59.555 384.3125 58.875 384.3125 C57.54166667 382.97916667 56.20833333 381.64583333 54.875 380.3125 C49.98864286 376.6826347 44.41549346 375.10423568 38.3515625 375.4609375 C32.9484301 376.34206371 28.9250157 378.12949707 24.46875 381.2890625 C22.875 382.3125 22.875 382.3125 20.875 382.3125 C20.875 382.9725 20.875 383.6325 20.875 384.3125 C19.4140625 385.6015625 19.4140625 385.6015625 17.5 386.9375 C16.87351562 387.38351562 16.24703125 387.82953125 15.6015625 388.2890625 C13.875 389.3125 13.875 389.3125 11.875 389.3125 C11.875 389.9725 11.875 390.6325 11.875 391.3125 C5.125 395.3125 5.125 395.3125 2.875 395.3125 C2.875 395.9725 2.875 396.6325 2.875 397.3125 C1.00819132 398.69499511 -0.92049792 399.99453634 -2.875 401.25 C-7.20049549 404.0199876 -7.20049549 404.0199876 -11.328125 407.06640625 C-13.125 408.3125 -13.125 408.3125 -16.125 408.3125 C-16.125 408.9725 -16.125 409.6325 -16.125 410.3125 C-31.55263054 419.56907832 -47.49149306 424.43859559 -65.5078125 420.58984375 C-73.48555708 417.57684236 -79.3130856 412.10972929 -83.61328125 404.7734375 C-85.53171811 400.38135724 -86.30478136 396.07735518 -87.125 391.375 C-88.18715085 385.312639 -89.26160706 379.80305595 -92.125 374.3125 C-98.65980082 369.95596612 -110.28695759 371.51465042 -117.86083984 372.76367188 C-124.5127354 374.16356105 -131.09036139 375.953438 -137.53271484 378.12353516 C-143.89953483 380.21388829 -149.81630949 380.88297478 -156.5 381.0625 C-157.51223633 381.0948877 -158.52447266 381.12727539 -159.56738281 381.16064453 C-171.47951752 381.48078076 -180.43250879 381.01656519 -191.125 375.3125 C-191.125 374.6525 -191.125 373.9925 -191.125 373.3125 C-191.88167969 373.05726563 -192.63835937 372.80203125 -193.41796875 372.5390625 C-198.1492267 370.39531792 -200.205247 367.05208691 -202.125 362.3125 C-204.11842639 351.26018916 -201.67622985 343.43627285 -195.375 334.18652344 C-193.99722499 332.12093732 -192.71451091 330.01208142 -191.4375 327.8828125 C-190.54241914 326.400587 -189.64659844 324.918808 -188.75 323.4375 C-188.32154785 322.72851562 -187.8930957 322.01953125 -187.45166016 321.2890625 C-186.39745171 319.59493398 -185.26783276 317.94815283 -184.125 316.3125 C-183.465 316.3125 -182.805 316.3125 -182.125 316.3125 C-181.465 314.3325 -180.805 312.3525 -180.125 310.3125 C-179.465 310.3125 -178.805 310.3125 -178.125 310.3125 C-177.815625 309.136875 -177.815625 309.136875 -177.5 307.9375 C-176.3282029 304.84821673 -175.09265368 302.47531487 -173.375 299.6875 C-165.2745275 286.50707017 -157.29542544 270.81224957 -153.6875 255.6875 C-152.72034956 251.7119771 -151.7165266 247.75571129 -150.625 243.8125 C-149.58179064 240.00560512 -148.55139442 236.19640606 -147.5625 232.375 C-147.33433594 231.49972656 -147.10617188 230.62445313 -146.87109375 229.72265625 C-144.4826548 218.80586463 -143.44001966 207.86635006 -142.5625 196.75 C-142.49774475 195.94593719 -142.4329895 195.14187439 -142.36627197 194.31344604 C-141.25557798 180.52195766 -140.25759245 166.76947591 -139.9982605 152.93205261 C-139.93649808 149.6735733 -139.86628336 146.41528264 -139.79718018 143.1569519 C-139.75156576 140.7694534 -139.72166072 138.38213583 -139.69287109 135.99438477 C-139.30247838 113.08033298 -133.76225678 91.73264922 -122.45703125 71.6875 C-121.28011904 69.58907588 -120.18066045 67.4738522 -119.125 65.3125 C-118.465 65.3125 -117.805 65.3125 -117.125 65.3125 C-116.980625 64.69375 -116.83625 64.075 -116.6875 63.4375 C-116.125 61.3125 -116.125 61.3125 -115.125 59.3125 C-114.465 59.3125 -113.805 59.3125 -113.125 59.3125 C-112.856875 58.57 -112.58875 57.8275 -112.3125 57.0625 C-111.17223249 54.42188051 -110.03119694 52.45697156 -108.125 50.3125 C-107.465 50.3125 -106.805 50.3125 -106.125 50.3125 C-105.898125 49.590625 -105.67125 48.86875 -105.4375 48.125 C-103.56221746 44.10653742 -100.95874594 41.2031766 -96.9375 39.25 C-94.96695737 38.46575187 -94.96695737 38.46575187 -94.2734375 36.46875 C-92.87419687 33.84160433 -91.3168487 32.64824955 -88.9375 30.875 C-88.13183594 30.27171875 -87.32617188 29.6684375 -86.49609375 29.046875 C-85.71363281 28.47453125 -84.93117188 27.9021875 -84.125 27.3125 C-83.49722656 26.84328125 -82.86945313 26.3740625 -82.22265625 25.890625 C-63.92032214 12.44401219 -43.06244363 5.85655621 -21.125 1.3125 C-19.96218506 1.04095093 -19.96218506 1.04095093 -18.77587891 0.76391602 C-12.62014279 -0.28433929 -6.23552722 0.02092958 0 0 Z M-28.125 30.3125 C-30.02765625 30.76496094 -30.02765625 30.76496094 -31.96875 31.2265625 C-38.10077535 32.83818455 -43.57722323 34.69222913 -48.96484375 38.06640625 C-51.125 39.3125 -51.125 39.3125 -54.421875 40.64453125 C-58.51754517 42.36238731 -61.90164742 44.77776747 -65.4375 47.4375 C-66.08976562 47.92323486 -66.74203125 48.40896973 -67.4140625 48.90942383 C-84.7319515 61.96402088 -97.41223885 77.33562011 -105.40234375 97.49658203 C-106.03620953 99.08938396 -106.70300281 100.66900035 -107.375 102.24609375 C-112.06672475 113.85466272 -112.3594141 126.57126118 -112.5625 138.9375 C-112.89299877 152.63082129 -113.69026081 166.27284151 -114.625 179.9375 C-114.69089325 180.90471985 -114.7567865 181.8719397 -114.82467651 182.86846924 C-115.19316538 188.2529492 -115.57374059 193.63643216 -115.96310425 199.0194397 C-116.10888143 201.08419961 -116.24188166 203.14985207 -116.37329102 205.21557617 C-116.78823574 211.44155309 -117.55834316 217.32092474 -119.0625 223.375 C-119.42963195 224.93039022 -119.79421929 226.48638327 -120.15625 228.04296875 C-120.32769531 228.77950684 -120.49914062 229.51604492 -120.67578125 230.27490234 C-121.2540273 232.89775099 -121.67169524 235.53077919 -122.0625 238.1875 C-122.93500947 243.74195763 -124.21950915 249.16906879 -125.5625 254.625 C-125.7680249 255.47368652 -125.9735498 256.32237305 -126.18530273 257.19677734 C-127.42979922 262.14649034 -129.04603664 266.63616853 -131.125 271.3125 C-132.12942751 274.0885645 -133.0575068 276.88989589 -134 279.6875 C-135.90367122 285.23238159 -137.97235791 290.27923352 -141.0234375 295.30859375 C-142.93044513 298.77772464 -144.02336829 302.52396169 -145.125 306.3125 C-145.785 306.3125 -146.445 306.3125 -147.125 306.3125 C-147.475625 307.26125 -147.82625 308.21 -148.1875 309.1875 C-150.01788603 313.49635132 -152.6600823 317.11285421 -155.40625 320.8828125 C-158.7950061 325.2193462 -158.7950061 325.2193462 -160.125 330.3125 C-160.785 330.3125 -161.445 330.3125 -162.125 330.3125 C-162.785 332.2925 -163.445 334.2725 -164.125 336.3125 C-164.785 336.3125 -165.445 336.3125 -166.125 336.3125 C-168.44092022 339.53364157 -168.44092022 339.53364157 -169.125 343.3125 C-169.785 343.3125 -170.445 343.3125 -171.125 343.3125 C-172.775 346.2825 -174.425 349.2525 -176.125 352.3125 C-174.145 353.055 -174.145 353.055 -172.125 353.8125 C-171.01125 354.23015625 -171.01125 354.23015625 -169.875 354.65625 C-163.08534004 356.27650976 -156.06700018 355.10030947 -149.25 354.125 C-148.33597412 353.99552979 -147.42194824 353.86605957 -146.48022461 353.73266602 C-139.62454401 352.69223592 -133.09778329 351.0543548 -126.45703125 349.09033203 C-111.98645224 344.86002164 -98.11609944 343.47384696 -83.7421875 348.4375 C-81.26879714 349.41819232 -81.26879714 349.41819232 -79.125 349.3125 C-79.125 349.9725 -79.125 350.6325 -79.125 351.3125 C-78.444375 351.663125 -77.76375 352.01375 -77.0625 352.375 C-69.78990034 357.17182105 -65.39485611 365.04679756 -63.125 373.3125 C-62.42206976 376.94018519 -61.8185528 380.58410008 -61.33886719 384.24804688 C-60.63026772 389.11151368 -59.41451621 392.47671034 -56.125 396.3125 C-50.78850508 398.24360517 -44.66503722 395.81381083 -39.72265625 393.63671875 C-31.98936693 389.69448555 -25.0084073 384.59278877 -18.05078125 379.4375 C-15.90078271 377.87595233 -13.74377523 376.36135026 -11.54296875 374.875 C-10.94339355 374.46878418 -10.34381836 374.06256836 -9.72607422 373.64404297 C-8.55047431 372.85100246 -7.37119331 372.0633867 -6.18798828 371.28173828 C-4.79860971 370.34182727 -3.45646565 369.33279641 -2.125 368.3125 C-2.125 367.6525 -2.125 366.9925 -2.125 366.3125 C-1.01125 365.9103125 -1.01125 365.9103125 0.125 365.5 C2.76561949 364.35973249 4.73052844 363.21869694 6.875 361.3125 C6.875 360.6525 6.875 359.9925 6.875 359.3125 C7.679375 359.085625 8.48375 358.85875 9.3125 358.625 C12.92367343 357.29456768 15.9615847 355.61988949 19.23828125 353.62890625 C26.5336588 349.98662146 33.19186422 348.78640319 41.3125 348.875 C42.23538818 348.87822266 43.15827637 348.88144531 44.10913086 348.88476562 C49.95472732 349.00481328 54.80181859 349.63079377 60.03515625 352.4375 C62.1374963 353.59882465 62.1374963 353.59882465 65.875 353.3125 C65.875 353.9725 65.875 354.6325 65.875 355.3125 C67.36136758 356.6731009 67.36136758 356.6731009 69.25 357.9375 C69.87648438 358.38351562 70.50296875 358.82953125 71.1484375 359.2890625 C72.82722643 360.48246969 72.82722643 360.48246969 74.875 360.3125 C74.875 360.9725 74.875 361.6325 74.875 362.3125 C75.535 362.3125 76.195 362.3125 76.875 362.3125 C76.875 362.9725 76.875 363.6325 76.875 364.3125 C77.535 364.3125 78.195 364.3125 78.875 364.3125 C78.875 364.9725 78.875 365.6325 78.875 366.3125 C79.535 366.3125 80.195 366.3125 80.875 366.3125 C81.14828125 366.88871094 81.4215625 367.46492188 81.703125 368.05859375 C82.87006634 370.30301093 84.18168023 372.29925786 85.625 374.375 C89.08551355 379.48905944 91.9979663 384.85429777 94.875 390.3125 C95.205 389.6525 95.535 388.9925 95.875 388.3125 C96.535 388.3125 97.195 388.3125 97.875 388.3125 C99.46707606 386.09072222 100.93565503 383.8801673 102.375 381.5625 C102.77847656 380.92828125 103.18195313 380.2940625 103.59765625 379.640625 C113.27719711 364.30669888 113.46606198 347.28608348 113.39257812 329.64086914 C113.398012 327.42276045 113.4051417 325.20465538 113.41381836 322.98655701 C113.43190513 317.01537156 113.42504486 311.04446553 113.41230202 305.0732758 C113.4020966 298.79082246 113.41158858 292.50839128 113.41784668 286.22593689 C113.42556507 275.00587832 113.41321928 263.78592124 113.39280933 252.56588697 C113.37494726 242.4335922 113.37804471 232.3014809 113.39648438 222.16918945 C113.41798699 210.34864633 113.42580713 198.52819235 113.41403532 186.70762914 C113.4078368 180.47033031 113.40686345 174.23315725 113.42018127 167.99586678 C113.43183808 162.12771632 113.42353646 156.25990815 113.40060425 150.3917942 C113.39536898 148.25345169 113.39674051 146.11507976 113.40565491 143.97674942 C113.51371131 115.39543466 106.61683146 87.94874963 86.875 66.3125 C86.215 66.3125 85.555 66.3125 84.875 66.3125 C84.875 65.6525 84.875 64.9925 84.875 64.3125 C84.215 64.3125 83.555 64.3125 82.875 64.3125 C82.648125 63.755625 82.42125 63.19875 82.1875 62.625 C80.49949964 59.65090412 78.40823483 57.59241135 75.875 55.3125 C75.215 55.3125 74.555 55.3125 73.875 55.3125 C73.875 54.6525 73.875 53.9925 73.875 53.3125 C71.54110595 51.29595447 71.54110595 51.29595447 68.625 49.25 C67.65046875 48.53714844 66.6759375 47.82429688 65.671875 47.08984375 C63.26187213 45.55834751 61.65371057 44.74253854 58.875 44.3125 C58.875 43.6525 58.875 42.9925 58.875 42.3125 C30.65539514 28.97542805 2.78816526 22.94257703 -28.125 30.3125 Z " fill="#151D23" transform="translate(258.125,27.6875)"/>
<path d="M0 0 C6.15666569 3.80107186 10.37069725 9.54815751 12.4375 16.4375 C13.39275114 24.09130236 12.20618184 30.68160212 8.4375 37.4375 C6.92578125 39.21875 6.92578125 39.21875 5.4375 40.4375 C4.7775 40.4375 4.1175 40.4375 3.4375 40.4375 C3.4375 41.0975 3.4375 41.7575 3.4375 42.4375 C-2.6203621 46.84321789 -8.72708202 47.9486566 -16.01171875 46.96484375 C-24.31096481 45.24907312 -29.8450055 41.51374175 -34.5625 34.4375 C-37.30638323 28.11463864 -37.73894534 20.55823826 -35.83984375 13.90625 C-33.87639803 9.13674623 -31.56100054 5.69943465 -27.5625 2.4375 C-26.9025 2.4375 -26.2425 2.4375 -25.5625 2.4375 C-25.5625 1.7775 -25.5625 1.1175 -25.5625 0.4375 C-17.82459279 -2.53861816 -7.7501266 -3.49280367 0 0 Z " fill="#171F25" transform="translate(225.5625,140.5625)"/>
<path d="M0 0 C3.0625 2.1875 3.0625 2.1875 4.0625 5.1875 C4.7225 5.1875 5.3825 5.1875 6.0625 5.1875 C10.30639463 10.84602618 11.20941506 14.5981245 11.25 21.5625 C11.26417969 22.66335937 11.27835937 23.76421875 11.29296875 24.8984375 C10.83916329 31.37477981 8.4189316 36.46324304 4.0625 41.1875 C-1.26437453 45.29389731 -7.52753049 47.54689587 -14.25 47.0625 C-20.88175608 46.07623884 -26.8213172 44.11966691 -31.8125 39.5625 C-36.18135715 32.62372688 -39.39702841 25.50961872 -37.9375 17.1875 C-36.81761822 13.74579435 -35.47004061 10.46467389 -33.9375 7.1875 C-33.2775 7.1875 -32.6175 7.1875 -31.9375 7.1875 C-31.9375 6.5275 -31.9375 5.8675 -31.9375 5.1875 C-31.2775 5.1875 -30.6175 5.1875 -29.9375 5.1875 C-29.6075 4.1975 -29.2775 3.2075 -28.9375 2.1875 C-21.1201702 -3.396307 -8.75962723 -4.10261022 0 0 Z " fill="#161E25" transform="translate(315.9375,140.8125)"/>
<path d="M0 0 C0.66 0.66 1.32 1.32 2 2 C1.625 5.625 1.625 5.625 1 9 C-2.75 10.125 -2.75 10.125 -5 9 C-5.625 6.9375 -5.625 6.9375 -6 5 C-5.34 5 -4.68 5 -4 5 C-3.896875 4.360625 -3.79375 3.72125 -3.6875 3.0625 C-3.460625 2.381875 -3.23375 1.70125 -3 1 C-2.01 0.67 -1.02 0.34 0 0 Z " fill="#20262A" transform="translate(151,121)"/>
<path d="M0 0 C7.26 0 14.52 0 22 0 C22.33 0.66 22.66 1.32 23 2 C17.79826905 2.86809439 12.83021184 3.12515348 7.5625 3.0625 C6.83095703 3.05798828 6.09941406 3.05347656 5.34570312 3.04882812 C3.56376581 3.03718148 1.78187137 3.01925191 0 3 C0 2.01 0 1.02 0 0 Z " fill="#394043" transform="translate(242,28)"/>
<path d="M0 0 C0 0.66 0 1.32 0 2 C0.99 2.33 1.98 2.66 3 3 C-3.93 2.67 -10.86 2.34 -18 2 C-18 2.66 -18 3.32 -18 4 C-20.64 3.67 -23.28 3.34 -26 3 C-26 2.67 -26 2.34 -26 2 C-17.26047454 0.55203128 -8.86088167 -0.29211698 0 0 Z " fill="#6B6F72" transform="translate(164,372)"/>
<path d="M0 0 C1.0528418 0.07831055 1.0528418 0.07831055 2.12695312 0.15820312 C3.85588054 0.28757865 5.58425355 0.42432531 7.3125 0.5625 C7.6425 1.8825 7.9725 3.2025 8.3125 4.5625 C7.70664062 4.40652344 7.10078125 4.25054687 6.4765625 4.08984375 C0.12391631 2.61407517 -5.25684675 2.55001417 -11.6875 3.5625 C-11.3575 2.5725 -11.0275 1.5825 -10.6875 0.5625 C-6.99441024 -0.66852992 -3.80699288 -0.30925152 0 0 Z " fill="#3D4144" transform="translate(300.6875,400.4375)"/>
<path d="M0 0 C0.99 0.66 1.98 1.32 3 2 C5.62531524 2.16713569 5.62531524 2.16713569 8 2 C6.71034824 3.37562854 5.37310707 4.70766393 4 6 C3.34 6 2.68 6 2 6 C2 6.66 2 7.32 2 8 C-2.38461538 11 -2.38461538 11 -5 11 C-4.67 9.35 -4.34 7.7 -4 6 C-2.68 6 -1.36 6 0 6 C0 4.02 0 2.04 0 0 Z " fill="#393F44" transform="translate(268,411)"/>
<path d="M0 0 C3.39576062 -0.05830787 6.7913915 -0.09369946 10.1875 -0.125 C11.14720703 -0.14175781 12.10691406 -0.15851563 13.09570312 -0.17578125 C14.02705078 -0.18222656 14.95839844 -0.18867188 15.91796875 -0.1953125 C16.77156982 -0.20578613 17.6251709 -0.21625977 18.50463867 -0.22705078 C21.30726815 0.02795806 23.44729419 0.84458578 26 2 C25.67 2.66 25.34 3.32 25 4 C24.34 4 23.68 4 23 4 C22.67 4.99 22.34 5.98 22 7 C20 5 20 5 19 2 C12.73 1.67 6.46 1.34 0 1 C0 0.67 0 0.34 0 0 Z " fill="#44494E" transform="translate(289,376)"/>
<path d="M0 0 C0.33 0.66 0.66 1.32 1 2 C1.66 2.33 2.32 2.66 3 3 C2.01 3 1.02 3 0 3 C0.33 3.99 0.66 4.98 1 6 C1.66 6.33 2.32 6.66 3 7 C1.625 8.5 1.625 8.5 0 10 C-0.66 10 -1.32 10 -2 10 C-2.33 11.65 -2.66 13.3 -3 15 C-3.99 15.33 -4.98 15.66 -6 16 C-4.56176509 10.36691325 -2.45855991 5.26322777 0 0 Z " fill="#4A5055" transform="translate(99,298)"/>
<path d="M0 0 C1.32 0.66 2.64 1.32 4 2 C3.01 4.97 2.02 7.94 1 11 C0.67 10.01 0.34 9.02 0 8 C-0.66 8 -1.32 8 -2 8 C-2.6875 6.25 -2.6875 6.25 -3 4 C-1.5625 1.75 -1.5625 1.75 0 0 Z " fill="#303539" transform="translate(115,318)"/>
<path d="M0 0 C2.09350689 3.4019487 2.17942163 6.05272412 2 10 C1.38125 10.12375 0.7625 10.2475 0.125 10.375 C-2.19120832 10.87197356 -2.19120832 10.87197356 -4 13 C-3.27991594 8.39146203 -1.68704061 4.32762591 0 0 Z " fill="#394043" transform="translate(132,106)"/>
<path d="M0 0 C0.66 0.33 1.32 0.66 2 1 C1.4409112 4.24271506 0.5867822 5.93057424 -2 8 C-2.66 8 -3.32 8 -4 8 C-4 8.66 -4 9.32 -4 10 C-4.99 10.33 -5.98 10.66 -7 11 C-6.34 9.02 -5.68 7.04 -5 5 C-4.34 5 -3.68 5 -3 5 C-3 4.34 -3 3.68 -3 3 C-2.34 3 -1.68 3 -1 3 C-0.67 2.01 -0.34 1.02 0 0 Z " fill="#4A4F53" transform="translate(287,143)"/>
<path d="M0 0 C0.66 0 1.32 0 2 0 C2.66 1.98 3.32 3.96 4 6 C3.360625 6.391875 2.72125 6.78375 2.0625 7.1875 C-0.43778819 9.38472296 -0.64950425 10.75791433 -1 14 C-1.33 14 -1.66 14 -2 14 C-2.1799928 8.78020872 -1.97094808 4.92737019 0 0 Z " fill="#3B4144" transform="translate(123,130)"/>
<path d="M0 0 C0.33 0.66 0.66 1.32 1 2 C0.67 2.66 0.34 3.32 0 4 C0.66 4.33 1.32 4.66 2 5 C1.01 5.33 0.02 5.66 -1 6 C-1.66 6.825 -2.32 7.65 -3 8.5 C-5 11 -5 11 -8 12 C-7.34 10.35 -6.68 8.7 -6 7 C-5.34 7 -4.68 7 -4 7 C-3.71125 6.21625 -3.4225 5.4325 -3.125 4.625 C-2 2 -2 2 0 0 Z " fill="#494E51" transform="translate(149,80)"/>
<path d="M0 0 C0.66 0.33 1.32 0.66 2 1 C2 1.66 2 2.32 2 3 C1.01 3.33 0.02 3.66 -1 4 C-1.4125 4.639375 -1.825 5.27875 -2.25 5.9375 C-4.72427667 8.85361179 -7.35317873 9.17430462 -11 10 C-11 9.34 -11 8.68 -11 8 C-9.35546875 6.81640625 -9.35546875 6.81640625 -7.1875 5.5625 C-4.40578131 3.94616437 -2.18823319 2.36770973 0 0 Z " fill="#585F62" transform="translate(267,386)"/>
<path d="M0 0 C0.99 0.33 1.98 0.66 3 1 C3 1.66 3 2.32 3 3 C7.95 3 12.9 3 18 3 C18 3.33 18 3.66 18 4 C10.74 4 3.48 4 -4 4 C-2.68 3.67 -1.36 3.34 0 3 C0 2.01 0 1.02 0 0 Z " fill="#353A3E" transform="translate(251,51)"/>
<path d="M0 0 C3.68266103 0.59950296 7.34543185 1.24758891 11 2 C10.01 2.99 9.02 3.98 8 5 C7.67 4.34 7.34 3.68 7 3 C3.9254644 3.7763932 3.9254644 3.7763932 2 6 C1.01 5.01 0.02 4.02 -1 3 C-0.67 2.01 -0.34 1.02 0 0 Z " fill="#0C1215" transform="translate(291,33)"/>
<path d="M0 0 C0.66 0.33 1.32 0.66 2 1 C1.09827532 2.17825358 0.17798498 3.34231577 -0.75 4.5 C-1.51570313 5.47453125 -1.51570313 5.47453125 -2.296875 6.46875 C-4 8 -4 8 -8 8 C-6.29058339 4.58116678 -3.41883322 1.70941661 0 0 Z " fill="#2E3539" transform="translate(274,382)"/>
<path d="M0 0 C1.32 0.66 2.64 1.32 4 2 C3.67 2.66 3.34 3.32 3 4 C2.01 3.67 1.02 3.34 0 3 C-0.103125 3.763125 -0.20625 4.52625 -0.3125 5.3125 C-1.04364039 8.17059424 -1.76951913 9.15742885 -4 11 C-4.66 10.67 -5.32 10.34 -6 10 C-4.02 6.7 -2.04 3.4 0 0 Z " fill="#3B4045" transform="translate(67,355)"/>
<path d="M0 0 C0.66 0 1.32 0 2 0 C2 3.3 2 6.6 2 10 C0.68 10 -0.64 10 -2 10 C-2.33 9.01 -2.66 8.02 -3 7 C-2.34 6.34 -1.68 5.68 -1 5 C-0.35232207 2.42938689 -0.35232207 2.42938689 0 0 Z " fill="#0C1417" transform="translate(140,219)"/>
<path d="M0 0 C-1.04097612 3.86648272 -2.03698408 7.49461443 -4 11 C-4 9.68 -4 8.36 -4 7 C-4.66 6.67 -5.32 6.34 -6 6 C-5.6875 4.125 -5.6875 4.125 -5 2 C-2 0 -2 0 0 0 Z " fill="#3B4043" transform="translate(393,401)"/>
<path d="M0 0 C2 3 2 3 2 6 C1.34 6 0.68 6 0 6 C0 8.31 0 10.62 0 13 C-0.99 13.33 -1.98 13.66 -3 14 C-3.33 14.66 -3.66 15.32 -4 16 C-2.84941444 10.60204011 -1.57578241 5.29012667 0 0 Z " fill="#61696B" transform="translate(108,270)"/>
<path d="M0 0 C0.33 0.66 0.66 1.32 1 2 C1.66 2 2.32 2 3 2 C2.67 2.99 2.34 3.98 2 5 C-0.3431213 4.74438677 -2.67843403 4.40729228 -5 4 C-5.33 3.34 -5.66 2.68 -6 2 C-4.02 1.34 -2.04 0.68 0 0 Z " fill="#262B2E" transform="translate(302,58)"/>
<path d="M0 0 C-2.80804268 2.96404505 -5.18315774 5.44499019 -9 7 C-8.125 3.125 -8.125 3.125 -7 2 C-6.67 1.34 -6.34 0.68 -6 0 C-3 -1 -3 -1 0 0 Z " fill="#575C61" transform="translate(197,72)"/>
<path d="M0 0 C0.33 0 0.66 0 1 0 C2.38529821 5.45461169 3.2396943 10.36718401 3 16 C2.67 16 2.34 16 2 16 C1.87625 15.236875 1.7525 14.47375 1.625 13.6875 C1.11897208 10.79732864 1.11897208 10.79732864 -1 8 C-0.96856707 5.26009592 -0.44521663 2.71582146 0 0 Z " fill="#505659" transform="translate(393,130)"/>
<path d="M0 0 C1.890625 0.24609375 1.890625 0.24609375 4 1 C5.046875 2.84765625 5.046875 2.84765625 5.75 5.0625 C5.99234375 5.79597656 6.2346875 6.52945313 6.484375 7.28515625 C6.65453125 7.85105469 6.8246875 8.41695312 7 9 C6.01 9 5.02 9 4 9 C0 2.25 0 2.25 0 0 Z " fill="#434A4D" transform="translate(354,106)"/>
<path d="M0 0 C0.66 0.33 1.32 0.66 2 1 C1.34 3.31 0.68 5.62 0 8 C-3 6 -3 6 -5 3 C-2.625 1.4375 -2.625 1.4375 0 0 Z " fill="#32383C" transform="translate(186,47)"/>
<path d="M0 0 C1.6266848 0.28211877 3.25132896 0.57602375 4.875 0.875 C5.77992188 1.03742187 6.68484375 1.19984375 7.6171875 1.3671875 C10 2 10 2 12 4 C11.01 4 10.02 4 9 4 C9 4.66 9 5.32 9 6 C8.01 5.67 7.02 5.34 6 5 C6 4.34 6 3.68 6 3 C4.02 2.34 2.04 1.68 0 1 C0 0.67 0 0.34 0 0 Z " fill="#5D6367" transform="translate(295,33)"/>
<path d="M0 0 C2.475 0.495 2.475 0.495 5 1 C5.33 2.65 5.66 4.3 6 6 C5.01 6.495 5.01 6.495 4 7 C4 6.34 4 5.68 4 5 C3.34 5 2.68 5 2 5 C2 4.34 2 3.68 2 3 C1.34 3 0.68 3 0 3 C0 2.01 0 1.02 0 0 Z " fill="#2F353B" transform="translate(317,409)"/>
<path d="M0 0 C0.99 0 1.98 0 3 0 C3.33 0.99 3.66 1.98 4 3 C2.02 4.32 0.04 5.64 -2 7 C-1.125 1.125 -1.125 1.125 0 0 Z " fill="#2D3235" transform="translate(91,317)"/>
<path d="M0 0 C1.65 0 3.3 0 5 0 C5.33 0.66 5.66 1.32 6 2 C1.25 5 1.25 5 -1 5 C-0.67 3.35 -0.34 1.7 0 0 Z " fill="#454A4F" transform="translate(264,417)"/>
<path d="M0 0 C1.65 0 3.3 0 5 0 C2.22719294 3.08089673 -0.06326356 4.68775452 -4 6 C-4 5.01 -4 4.02 -4 3 C-2.68 3 -1.36 3 0 3 C0 2.01 0 1.02 0 0 Z " fill="#565B5D" transform="translate(284,404)"/>
<path d="M0 0 C0.33 0.66 0.66 1.32 1 2 C1.66 2 2.32 2 3 2 C3 2.66 3 3.32 3 4 C3.66 4 4.32 4 5 4 C5 4.66 5 5.32 5 6 C5.66 6 6.32 6 7 6 C6.67 6.66 6.34 7.32 6 8 C3.5625 7.375 3.5625 7.375 1 6 C0.1875 2.875 0.1875 2.875 0 0 Z " fill="#4E5558" transform="translate(332,388)"/>
<path d="M0 0 C0.66 0.99 1.32 1.98 2 3 C0.6875 5.5 0.6875 5.5 -1 8 C-1.99 8 -2.98 8 -4 8 C-3.67 6.68 -3.34 5.36 -3 4 C-2.34 4 -1.68 4 -1 4 C-0.67 2.68 -0.34 1.36 0 0 Z " fill="#4D5659" transform="translate(77,340)"/>
<path d="M0 0 C0.66 0 1.32 0 2 0 C2.33 2.31 2.66 4.62 3 7 C2.01 7.33 1.02 7.66 0 8 C-1.09658936 4.71023192 -0.79953138 3.28696233 0 0 Z " fill="#394345" transform="translate(388,117)"/>
<path d="M0 0 C0.66 0.33 1.32 0.66 2 1 C1.75 2.875 1.75 2.875 1 5 C-1.0625 6.25 -1.0625 6.25 -3 7 C-3.33 6.34 -3.66 5.68 -4 5 C-2.68 3.35 -1.36 1.7 0 0 Z " fill="#43494C" transform="translate(161,66)"/>
<path d="M0 0 C1.32 0.66 2.64 1.32 4 2 C3.401875 2.28875 2.80375 2.5775 2.1875 2.875 C-0.19327792 4.04742026 -0.19327792 4.04742026 -3 6 C-3.66 5.01 -4.32 4.02 -5 3 C-3.35 2.67 -1.7 2.34 0 2 C0 1.34 0 0.68 0 0 Z " fill="#0B1215" transform="translate(198,42)"/>
<path d="M0 0 C3.3 0.99 6.6 1.98 10 3 C9.01 3.66 8.02 4.32 7 5 C3.875 4.3125 3.875 4.3125 1 3 C0.67 2.01 0.34 1.02 0 0 Z " fill="#4C5356" transform="translate(308,37)"/>
<path d="M0 0 C0.33 1.32 0.66 2.64 1 4 C-3.455 3.01 -3.455 3.01 -8 2 C-4.77208445 -0.1519437 -3.71599191 -0.20086443 0 0 Z " fill="#565A5C" transform="translate(308,401)"/>
<path d="M0 0 C0.99 0.66 1.98 1.32 3 2 C2.67 2.66 2.34 3.32 2 4 C1.34 4 0.68 4 0 4 C0.33 4.99 0.66 5.98 1 7 C0.34 7 -0.32 7 -1 7 C-1.33 5.02 -1.66 3.04 -2 1 C-1.34 0.67 -0.68 0.34 0 0 Z " fill="#0D1317" transform="translate(370,392)"/>
<path d="M0 0 C1.11988052 3.35964157 0.71980913 5.58090665 0 9 C0.33 9.66 0.66 10.32 1 11 C0.01 10.67 -0.98 10.34 -2 10 C-2.1953125 3.9453125 -2.1953125 3.9453125 -2 2 C-1.34 1.34 -0.68 0.68 0 0 Z " fill="#0D1317" transform="translate(59,380)"/>
<path d="M0 0 C3.57104439 1.87949705 5.54744301 3.17053157 7 7 C2.25 5.125 2.25 5.125 0 4 C0 2.68 0 1.36 0 0 Z " fill="#555960" transform="translate(352,64)"/>
<path d="M0 0 C0.66 0.33 1.32 0.66 2 1 C-0.475 4.465 -0.475 4.465 -3 8 C-3.66 6.68 -4.32 5.36 -5 4 C-3.35 2.68 -1.7 1.36 0 0 Z " fill="#4A4F53" transform="translate(233,411)"/>
<path d="M0 0 C0.33 0 0.66 0 1 0 C1 2.31 1 4.62 1 7 C0.01 7.33 -0.98 7.66 -2 8 C-2.33 6.68 -2.66 5.36 -3 4 C-2.34 4 -1.68 4 -1 4 C-0.67 2.68 -0.34 1.36 0 0 Z " fill="#30363A" transform="translate(196,407)"/>
<path d="M0 0 C-0.66 0 -1.32 0 -2 0 C-1.67 0.99 -1.34 1.98 -1 3 C-4.76687864 3 -5.91190305 2.76462683 -9 1 C-3.375 -1.125 -3.375 -1.125 0 0 Z " fill="#42484B" transform="translate(129,378)"/>
<path d="M0 0 C1.0625 1.875 1.0625 1.875 2 4 C1.67 4.66 1.34 5.32 1 6 C0.34 6 -0.32 6 -1 6 C-1 6.66 -1 7.32 -1 8 C-1.66 8 -2.32 8 -3 8 C-1.125 2.25 -1.125 2.25 0 0 Z " fill="#4A4F53" transform="translate(60,366)"/>
<path d="M0 0 C0 3.10551666 -0.5393715 4.35261084 -2 7 C-2.99 6.67 -3.98 6.34 -5 6 C-4.67 5.01 -4.34 4.02 -4 3 C-3.34 3 -2.68 3 -2 3 C-2 2.34 -2 1.68 -2 1 C-1.34 0.67 -0.68 0.34 0 0 Z " fill="#0A1216" transform="translate(252,399)"/>
</svg>
